{
  "accessors": [
    {
      "name": "group_0_11107152_0_positions",
      "componentType": 5126,
      "count": 244,
      "min": [
        null,
        null,
        null
      ],
      "max": [
        null,
        null,
        null
      ],
      "type": "VEC3",
      "bufferView": 0,
      "byteOffset": 0
    },
    {
      "name": "group_0_11107152_0_indices",
      "componentType": 5123,
      "count": 1290,
      "min": [
        0
      ],
      "max": [
        243
      ],
      "type": "SCALAR",
      "bufferView": 1,
      "byteOffset": 0
    },
    {
      "name": "group_0_16113784_0_positions",
      "componentType": 5126,
      "count": 62,
      "min": [
        null,
        null,
        null
      ],
      "max": [
        null,
        null,
        null
      ],
      "type": "VEC3",
      "bufferView": 0,
      "byteOffset": 2928
    },
    {
      "name": "group_0_16113784_0_indices",
      "componentType": 5123,
      "count": 222,
      "min": [
        0
      ],
      "max": [
        61
      ],
      "type": "SCALAR",
      "bufferView": 1,
      "byteOffset": 2580
    }
  ],
  "asset": {
    "generator": "obj2gltf",
    "version": "2.0"
  },
  "buffers": [
    {
      "name": "model",
      "byteLength": 6696,
      "uri": "data:application/octet-stream;base64,"
    }
  ],
  "bufferViews": [
    {
      "name": "bufferView_0",
      "buffer": 0,
      "byteLength": 3672,
      "byteOffset": 0,
      "byteStride": 12,
      "target": 34962
    },
    {
      "name": "bufferView_1",
      "buffer": 0,
      "byteLength": 3024,
      "byteOffset": 3672,
      "target": 34963
    }
  ],
  "materials": [
    {
      "name": "color_11107152",
      "pbrMetallicRoughness": {
        "baseColorFactor": [
          0.6627450980392157,
          0.4823529411764706,
          0.3137254901960784,
          1
        ],
        "metallicFactor": 0,
        "roughnessFactor": 1
      },
      "emissiveFactor": [
        0,
        0,
        0
      ],
      "alphaMode": "OPAQUE",
      "doubleSided": false
    },
    {
      "name": "color_16113784",
      "pbrMetallicRoughness": {
        "baseColorFactor": [
          0.9607843137254902,
          0.8784313725490196,
          0.47058823529411764,
          1
        ],
        "metallicFactor": 0,
        "roughnessFactor": 1
      },
      "emissiveFactor": [
        0,
        0,
        0
      ],
      "alphaMode": "OPAQUE",
      "doubleSided": false
    }
  ],
  "meshes": [
    {
      "name": "group_0_11107152",
      "primitives": [
        {
          "attributes": {
            "POSITION": 0
          },
          "indices": 1,
          "material": 0,
          "mode": 4
        }
      ]
    },
    {
      "name": "group_0_16113784",
      "primitives": [
        {
          "attributes": {
            "POSITION": 2
          },
          "indices": 3,
          "material": 1,
          "mode": 4
        }
      ]
    }
  ],
  "nodes": [
    {
      "name": "obj_0",
      "children": [
        1,
        2
      ]
    },
    {
      "name": "group_0_11107152",
      "mesh": 0
    },
    {
      "name": "group_0_16113784",
      "mesh": 1
    }
  ],
  "scene": 0,
  "scenes": [
    {
      "nodes": [
        0
      ]
    }
  ]
}
